<svg width="75" height="75" viewBox="0 0 75 75" fill="none" xmlns="http://www.w3.org/2000/svg">
<path d="M37.5 7.8125C29.6264 7.8125 22.0753 10.9403 16.5078 16.5078C10.9403 22.0753 7.8125 29.6264 7.8125 37.5C7.8125 45.3736 10.9403 52.9247 16.5078 58.4922C22.0753 64.0597 29.6264 67.1875 37.5 67.1875C45.3736 67.1875 52.9247 64.0597 58.4922 58.4922C64.0597 52.9247 67.1875 45.3736 67.1875 37.5C67.1875 29.6264 64.0597 22.0753 58.4922 16.5078C52.9247 10.9403 45.3736 7.8125 37.5 7.8125Z" fill="#039BE5"/>
<path d="M41.5187 45.3688H49.2015L50.4078 37.5641H41.5172V33.2984C41.5172 30.0563 42.5766 27.1813 45.6094 27.1813H50.4828V20.3703C49.6265 20.2547 47.8156 20.0016 44.3937 20.0016C37.2484 20.0016 33.0594 23.775 33.0594 32.3719V37.5641H25.7141V45.3688H33.0594V66.8203C34.5141 67.0391 35.9875 67.1875 37.5 67.1875C38.8672 67.1875 40.2015 67.0625 41.5187 66.8844V45.3688Z" fill="white"/>
</svg>
