<svg width="75" height="75" viewBox="0 0 75 75" fill="none" xmlns="http://www.w3.org/2000/svg">
<path d="M65.1094 21.0625C64.4844 21.4687 63.5938 21.8437 63.2188 22.2656C63.0781 22.4063 63 22.5625 63.0313 22.7187V24.3281L62.5625 25.9062L62.0938 27.4687L61.5781 29.1875L60.5156 32.7031L59.4844 36.1719L58.7031 38.7812C58.7031 39.1875 58.6875 39.5938 58.6563 39.9844C58.5469 41.4844 58.2344 42.9219 57.7344 44.2656C57.4375 45.0937 57.0781 45.8906 56.6406 46.6406C56.4844 46.9375 56.2969 47.2344 56.1094 47.5156C55.4844 48.5 54.7344 49.4063 53.9063 50.2031C53.2656 50.8438 52.5625 51.4375 51.7969 51.9375C51.7969 51.9375 51.7969 51.9375 51.7813 51.9375C51.6563 52.0469 51.5156 52.1406 51.3594 52.2187C50.875 52.5469 50.3594 52.8281 49.8281 53.0781C49.4688 53.2656 49.1094 53.4219 48.7344 53.5625C48.6563 53.6094 48.5625 53.6406 48.4844 53.6719C47.5938 54.0937 46.5625 54.375 45.5313 54.5156C45.4688 54.5312 45.4219 54.5312 45.3594 54.5469C44.7344 54.6562 44.125 54.75 43.5 54.7969C43.2188 54.8281 42.9219 54.8437 42.6406 54.8437L41.5313 54.7813L36.1875 54.5C36.1875 54.4844 36.1719 54.5 36.1719 54.5L33.4844 54.3594C33.2813 54.3594 33.0625 54.3594 32.8594 54.3437C32.0156 54.3125 31.2031 54.2188 30.3906 54.0469C30.375 54.0469 30.375 54.0469 30.375 54.0469C28.8906 53.7656 27.4688 53.2656 26.1406 52.5937C25.4063 52.2187 24.6875 51.7969 24.0156 51.3125C23.7344 51.1094 23.4688 50.8906 23.2031 50.6562C22.4531 50.0312 21.7813 49.3594 21.1563 48.6719C21.0625 48.5781 20.9844 48.4844 20.9063 48.3906C20.8125 48.2969 20.7188 48.1875 20.6406 48.0938C20.0469 47.3438 19.5469 46.5781 19.1406 45.7656C18.7656 45.0469 18.4688 44.2812 18.2344 43.4375C18.1406 43.1406 18.0625 42.8594 18 42.5469C17.9844 42.5312 17.9688 42.5 17.9688 42.4688C17.8125 41.8281 17.6719 41.1562 17.5938 40.4844C17.5 39.9687 17.4531 39.4531 17.4531 38.9219C17.4219 38.7187 17.4219 38.5 17.4219 38.2969L20.4063 33.6875L23.3281 29.1875L24.6563 27.1406L25.8594 25.2969L26.2656 24.6562V23.0469C26.2969 22.6875 26.3125 22.3125 26.2969 21.9688C26.2813 20.875 26.0625 19.8125 25.7031 18.7969C25.3594 17.7187 24.875 16.7031 24.375 15.7656C23.7813 14.6875 23.1563 13.7188 22.6406 12.8438C21.875 11.5625 21.3438 10.5156 21.4844 9.78125C22.6094 9.51563 23.7969 9.375 25 9.375H50C56.5313 9.375 62.1563 13.4375 64.4844 19.1563C64.7344 19.7656 64.9531 20.4062 65.1094 21.0625Z" fill="#304FFE"/>
<path d="M65.625 25V25.4219L63.4688 26.6719L62.0938 27.4687L60.5781 28.3437L57.5469 30.1094L54.5781 31.8281L51.5469 33.5781L50.3438 34.2813C50.3438 35.0313 50.1563 35.7188 49.8125 36.3438C49.3281 37.25 48.5156 38 47.4844 38.6406C46.4375 39.2812 45.1563 39.7969 43.7188 40.1719C43.7188 40.1719 43.7188 40.1562 43.7031 40.1719C38.1406 41.6094 30.5469 40.9531 26.8594 38.2031C25.8281 37.4375 25.1094 36.5 24.7969 35.4219C24.7031 35.0625 24.6563 34.6719 24.6563 34.2813V23.0469C24.6719 22.8125 24.5156 22.5781 24.2344 22.3438C23.3906 21.6719 21.4063 21.0313 19.1875 20.3906C17.4531 19.9063 15.5937 19.4219 14.0312 18.9531C12.7969 18.5781 11.75 18.2031 11.125 17.8438C11.4063 17.2969 11.7344 16.75 12.0781 16.2344C14.2656 13.0313 17.6094 10.6719 21.4844 9.78125C22.6094 9.51563 23.7969 9.375 25 9.375H41.875C50.2656 10.8437 58 14.2656 64.4844 19.1563C64.7344 19.7656 64.9531 20.4062 65.1094 21.0625C65.3906 22.0937 65.5625 23.1562 65.6094 24.2656C65.625 24.5 65.625 24.75 65.625 25Z" fill="#4928F4"/>
<path d="M65.625 25V31.8906L65.2812 32.9531L64.1094 36.5938L62.8906 40.3438L62.25 42.3438L61.6562 44.2031L61.0781 45.9688L60.5156 47.7188L60.2188 48.6406L59.8281 49.8594C59.8281 51.0469 59.7969 52.0938 59.7188 52.9844C59.7031 53.0781 59.6875 53.1719 59.6875 53.2656C59.5937 54.0938 59.4687 54.7969 59.2656 55.3906C59.25 55.4844 59.2187 55.5781 59.1875 55.6563C58.7812 56.7813 58.1719 57.5 57.2656 57.9688C57.0469 58.0938 56.7969 58.1875 56.5312 58.2813C55.7031 58.5625 54.6562 58.7031 53.375 58.7813C52.4375 58.8438 51.3594 58.8594 50.1406 58.8594H49.0625L47.2031 58.7813L46.875 58.7656L43.4844 58.625L40.0469 58.4844L28.7187 58.0156L25.7812 57.8906H25.375C24.1562 57.875 23.1094 57.7969 22.2031 57.6719C20.8906 57.4688 19.875 57.125 19.1094 56.6094C18.0156 55.9063 17.375 54.875 17 53.4375C16.9062 53.0938 16.8281 52.7344 16.7812 52.3438C16.625 51.4375 16.5469 50.3906 16.5 49.2188C16.5 48.9844 16.5 48.75 16.4844 48.5C16.4687 48.4844 16.4844 48.4844 16.4844 48.4844V47.5781C16.4687 47.125 16.4687 46.6563 16.4687 46.1719L16.5469 43.6563L16.5937 41.8594L16.6562 39.7656V39.4688L16.7656 35.625L16.875 31.7813L16.9844 28.1719L17.0781 24.625L17.1094 23.6875C17.1094 23.2031 15.4687 22.9219 13.6406 22.6875C12.1875 22.5 10.5937 22.3281 9.64062 22.1094C9.71875 21.75 9.79687 21.3906 9.89062 21.0469C10.1719 19.9219 10.5937 18.8594 11.125 17.8438C11.4062 17.2969 11.7344 16.75 12.0781 16.2344C15.4531 14.75 18.9687 13.5938 22.6406 12.8438C25.8594 12.1719 29.2187 11.8125 32.6875 11.8125C44.1875 11.8125 54.8125 15.7031 63.2187 22.2656C64.0312 22.8906 64.8281 23.5625 65.6094 24.2656C65.625 24.5 65.625 24.75 65.625 25Z" fill="#6200EA"/>
<path d="M65.625 28.7031V35.7969L64.7656 37.4531L63.125 40.6562L62.25 42.3438L61.4531 43.8906L61.1094 44.5625C61.1094 45.0469 61.1094 45.5156 61.0781 45.9688C61.0781 46.6406 61.0469 47.2812 61 47.875C60.9375 48.5781 60.8438 49.2188 60.75 49.8125C60.5156 51.0469 60.1875 52.1094 59.7188 52.9844C59.6563 53.0937 59.5937 53.2031 59.5312 53.2969C59.3594 53.5781 59.1563 53.8437 58.9375 54.0937C58.6563 54.4375 58.3438 54.7344 57.9844 54.9844C57.4531 55.3906 56.8281 55.7187 56.1094 55.9687C55.2187 56.2969 54.1875 56.5156 52.9688 56.6406C52.1719 56.7187 51.2969 56.7656 50.3438 56.7656L49.6875 56.7969L46.4375 56.9844H46.4219L42.9688 57.1875L39.4531 57.3906L34.6094 57.6719L28.7187 58.0156L27.8594 58.0625C27.0625 58.0625 26.3125 58.0156 25.5937 57.9219C25.5156 57.9062 25.4531 57.8906 25.375 57.8906C24.3125 57.7187 23.3438 57.4375 22.4688 57.0469C21.4063 56.5781 20.4844 55.9531 19.7031 55.2031C19.0156 54.5313 18.4219 53.7656 17.9375 52.9062C17.8281 52.7031 17.7187 52.5156 17.625 52.2969C17.1562 51.375 16.7813 50.3437 16.5 49.2187C16.4531 49.0312 16.4062 48.8281 16.375 48.625C16.2812 48.2656 16.2031 47.8906 16.1563 47.5C15.9844 46.5 15.8906 45.4375 15.8438 44.3281V44.3125C15.8281 43.8594 15.8125 43.4219 15.8125 42.9531L15.0469 41.125L14.9375 40.8437L14.8438 40.6094L13.6719 37.8125L13.4844 37.3594L12.3594 34.6563L11.1094 31.6406C11.1094 31.6406 11.1094 31.6406 11.0937 31.6406L9.82812 28.5937L9.375 27.4844V25C9.375 24.0156 9.46875 23.0469 9.64063 22.1094C9.71875 21.75 9.79687 21.3906 9.89062 21.0469C11.2187 20.2813 12.6094 19.5781 14.0312 18.9531C17.2812 17.5 20.7656 16.4219 24.375 15.7656C27.0625 15.2813 29.8594 15.0156 32.6875 15.0156C44.1094 15.0156 54.4688 19.1563 62.5625 25.9063C62.875 26.1563 63.1719 26.4063 63.4687 26.6719C64.2031 27.3125 64.9219 27.9844 65.625 28.7031Z" fill="#673AB7"/>
<path d="M65.625 33.3594V41.3906L64.7344 43.25L63.0469 46.7656L63.0313 46.8125C63.0313 47.4844 63 48.0937 62.9531 48.6406C62.7969 50.4375 62.3594 51.5781 61.6406 52.2812C61.125 52.8125 60.4844 53.1094 59.6875 53.2656C59.6406 53.2813 59.5781 53.2813 59.5312 53.2969C59.2812 53.3438 59.0156 53.375 58.7344 53.375C57.7656 53.4687 56.625 53.4062 55.3125 53.3125C55.1719 53.3125 55.0156 53.2969 54.8594 53.2812C53.9063 53.2187 52.8906 53.1563 51.7656 53.1094C51.1563 53.0938 50.5156 53.0781 49.8594 53.0781H49.8281L48.25 53.2031H48.2344L44.6875 53.4531L40.6406 53.7656L40.0469 53.8125L35.3125 54.1562L32.8594 54.3437L30.4375 54.5156C30.0156 54.5156 29.6094 54.5156 29.2031 54.5C29.2031 54.5 29.1875 54.4844 29.1875 54.5C27.4219 54.4688 25.8438 54.3594 24.4375 54.0937C23.1406 53.875 22 53.5313 21.0313 53.0156C20.0313 52.5313 19.2031 51.8437 18.5312 50.9687C17.8906 50.1094 17.4219 49.0312 17.125 47.7344C17.125 47.7187 17.125 47.7188 17.125 47.7188C16.9063 46.6719 16.7812 45.4531 16.7812 44.0781L16.5469 43.6563L15.1562 41.1719L14.9531 40.8281L14.8438 40.6094L13.3906 38.0313L12.6719 36.7344L11.7656 35.125L10.2031 32.3281L9.375 30.8594V25.1094C10.75 24.2031 12.1719 23.4063 13.6406 22.6875C15.4219 21.7813 17.2656 21.0156 19.1875 20.3906C21.2812 19.7031 23.4688 19.1562 25.7031 18.7969C27.9688 18.4219 30.2969 18.2344 32.6875 18.2344C43.3125 18.2344 53.0625 22.0312 60.5781 28.3437C60.9219 28.6094 61.25 28.9063 61.5781 29.1875C62.8906 30.3594 64.1406 31.625 65.2812 32.9531C65.4062 33.0938 65.5313 33.2188 65.625 33.3594Z" fill="#8E24AA"/>
<path d="M65.625 38.6094V49.9063C65.25 49.6875 64.7344 49.4219 64.0938 49.1406C63.75 48.9687 63.3594 48.7969 62.9531 48.6406C62.3594 48.375 61.7188 48.125 61 47.875C60.8438 47.8125 60.6875 47.7656 60.5156 47.7187C60.2344 47.6094 59.9375 47.5156 59.6406 47.4219C58.7187 47.1406 57.7031 46.875 56.6406 46.6406C56.2344 46.5625 55.8125 46.4844 55.3906 46.4219C54.0313 46.1875 52.5781 46.0469 51.0625 46.0312C50.9375 46.0156 50.7969 46.0156 50.6719 46.0156L46.6563 46.0469L41.1875 46.0781H41.1719L29.4688 46.1719C25.75 46.1719 23.4688 47.0625 22.0938 47.4219C22.0938 47.4219 22.0781 47.4219 22.0781 47.4375C20.625 47.8125 20.1719 47.5781 20.0469 45.0312C20.0156 44.3281 20 43.4219 20 42.3125L19.125 41.6406L17.5938 40.4844L16.6562 39.7656L16.4687 39.625L13.875 37.6563L13.4844 37.3594L12.6719 36.7344L11.1719 35.6094L9.375 34.2344V28.9219C9.53125 28.7969 9.67187 28.6875 9.82812 28.5937C12.0938 27.0312 14.5156 25.7031 17.0781 24.625C19.3594 23.6562 21.7656 22.8906 24.2344 22.3437C24.9063 22.2031 25.5937 22.0625 26.2969 21.9688C28.375 21.6094 30.5156 21.4375 32.6875 21.4375C42.0781 21.4375 50.7031 24.7031 57.5469 30.1094C58.5781 30.9219 59.5781 31.7813 60.5156 32.7031C61.7969 33.9219 63 35.2187 64.1094 36.5937C64.3281 36.875 64.5469 37.1562 64.7656 37.4531C65.0625 37.8281 65.3437 38.2187 65.625 38.6094Z" fill="#C2185B"/>
<path d="M65.625 44.875V50C65.625 51.0156 65.5312 52.0156 65.3437 52.9844C65.0625 54.4219 64.5781 55.7969 63.9219 57.0781C63.5781 57.1562 63.1875 57.1563 62.75 57.0938C61.7656 56.9219 60.6094 56.4062 59.3594 55.7344C59.2969 55.7187 59.2344 55.6875 59.1875 55.6562C58.7969 55.4531 58.3906 55.2344 57.9844 54.9844C57.1563 54.5312 56.2812 54.0312 55.4062 53.5625C55.2187 53.4687 55.0313 53.375 54.8594 53.2812C53.8594 52.7656 52.8281 52.2969 51.7969 51.9375C51.7969 51.9375 51.7969 51.9375 51.7812 51.9375C51.5625 51.8594 51.3281 51.7812 51.0938 51.7187C50.2031 51.4687 49.2969 51.3125 48.4219 51.3125L46.7031 50.8125L39.0938 48.6094C39.0938 48.6094 39.0938 48.6094 39.0781 48.6094L34.4063 47.25H34.3906L32.3594 46.6562C26.4844 46.6562 22.875 49.1562 21.125 48.2031C20.4375 47.8437 20.0312 46.9375 19.8906 45.1562C19.8437 44.6562 19.8281 44.0937 19.8281 43.4375L18 42.5469L17.9219 42.5156H17.9063L16.5937 41.8594L15.1562 41.1719L15.0469 41.125L14.7813 40.9844L11.7188 39.5L9.375 38.3594V33C9.64063 32.7656 9.92188 32.5469 10.2031 32.3281C10.5 32.0938 10.7969 31.875 11.0937 31.6406C11.1094 31.6406 11.1094 31.6406 11.1094 31.6406C12.9531 30.3125 14.9062 29.1406 16.9844 28.1719C19.4062 27.0156 21.9844 26.125 24.6562 25.5469C25.0469 25.4531 25.4531 25.3594 25.8594 25.2969C28.0781 24.875 30.3594 24.6562 32.6875 24.6562C40.9219 24.6562 48.4844 27.3281 54.5781 31.8281C56.3438 33.1406 57.9844 34.5937 59.4844 36.1719C60.7187 37.4687 61.8594 38.875 62.8906 40.3437C62.9688 40.4531 63.0469 40.5625 63.125 40.6562C63.7031 41.5 64.2344 42.3594 64.7344 43.25C65.0625 43.7812 65.3437 44.3281 65.625 44.875Z" fill="#D81B60"/>
<path d="M65.3437 52.9844C65.0625 54.4219 64.5781 55.7969 63.9219 57.0781C63.625 57.6562 63.2969 58.2031 62.9375 58.7344C62.7187 59.0625 62.4844 59.375 62.25 59.6719C61.6875 59.4531 60.8594 59.1406 59.8437 58.7969C59.8437 58.7969 59.8437 58.7969 59.8437 58.7812C59.0781 58.5156 58.2031 58.2344 57.2656 57.9687C57 57.8906 56.7344 57.8125 56.4531 57.7344C55.3438 57.4375 54.1875 57.1719 53.0625 57.0156C52.125 56.8594 51.2031 56.7656 50.3438 56.7656L49.625 56.5625H49.6094L45.8281 55.4688L43.5 54.7969L40.9063 54.0469H40.8906L40.0469 53.8125L29.8438 50.875L26.9062 50.0313L24.7187 49.5156L21.1562 48.6719L20.7188 48.5625C20.7188 48.5625 20.7187 48.5625 20.7031 48.5625L17.125 47.7344C17.125 47.7187 17.125 47.7188 17.125 47.7188L16.4844 47.5781L16.1563 47.5L13.5469 46.8906L13.25 46.8125L11.0312 44.9844L9.375 43.5937V37.2187C9.95313 36.6562 10.5469 36.125 11.1719 35.6094C11.3594 35.4375 11.5625 35.2812 11.7656 35.125C11.9531 34.9687 12.1562 34.8125 12.3594 34.6563C13.7812 33.5781 15.2813 32.6094 16.875 31.7813C18.9063 30.6875 21.0625 29.8125 23.3281 29.1875C23.7656 29.0469 24.2031 28.9219 24.6562 28.8281C27.2187 28.1875 29.9063 27.8594 32.6875 27.8594C39.6719 27.8594 46.1719 29.9687 51.5469 33.5781C54.2188 35.375 56.625 37.5313 58.6563 39.9844C59.6875 41.2188 60.625 42.5156 61.4531 43.8906C61.5313 44 61.5937 44.0938 61.6562 44.2031C62.1562 45.0313 62.625 45.8906 63.0469 46.7656C63.4375 47.5469 63.7813 48.3281 64.0938 49.1406C64.5938 50.3906 65 51.6719 65.3437 52.9844Z" fill="#F50057"/>
<path d="M62.9375 58.7344C62.7187 59.0625 62.4844 59.375 62.25 59.6719C61.5625 60.5312 60.8125 61.3125 59.9688 62C59.2344 62.6094 58.4531 63.1563 57.625 63.625C57.3125 63.5469 57 63.4531 56.6719 63.3281C55.6406 62.9687 54.5625 62.375 53.5625 61.75C52.0625 60.7969 50.7656 59.7656 50.1875 59.2969C49.9687 59.1094 49.8594 59.0156 49.8594 59.0156L47.2031 58.7812L46.875 58.75L43.4375 58.4531L39.875 58.1406L34.6094 57.6719L26.2656 56.9375L26.2344 56.9219L23.2969 55.5L20.3281 54.0625L17.9375 52.9063L17.4219 52.6563L16.7812 52.3437L14.5625 51.2656L11.6094 49.8437L10.6875 49.3906L9.375 48.9844V42C10.1094 41.125 10.8906 40.2969 11.7188 39.5C12.25 39 12.8125 38.5 13.3906 38.0313C13.4844 37.9531 13.5781 37.875 13.6719 37.8125C13.7344 37.7344 13.8125 37.6875 13.875 37.6563C14.7969 36.9063 15.7656 36.2344 16.7656 35.625C17.9219 34.8906 19.1406 34.2344 20.4063 33.6875C21.7656 33.0781 23.1875 32.5625 24.6562 32.1719C27.2031 31.4531 29.9063 31.0781 32.6875 31.0781C39.0625 31.0781 44.9531 33.0156 49.8125 36.3438C52.9219 38.4688 55.6094 41.1563 57.7344 44.2656C58.4375 45.2656 59.0625 46.3281 59.6406 47.4219C59.8437 47.8281 60.0469 48.2344 60.2188 48.6406C60.4063 49.0312 60.5781 49.4219 60.75 49.8125C61.0781 50.625 61.375 51.4375 61.6406 52.2812C62.1406 53.8437 62.5156 55.4375 62.75 57.0938C62.8281 57.6406 62.8906 58.1875 62.9375 58.7344Z" fill="#FF1744"/>
<path d="M59.9844 61.5937C59.9844 61.7187 59.9844 61.8594 59.9687 62C59.2344 62.6094 58.4531 63.1563 57.625 63.625C57.2812 63.8125 56.9375 64 56.5781 64.1563C56.2187 64.3281 55.8594 64.4844 55.4844 64.625C54.9531 64.3438 54.2344 64 53.4687 63.6719C52.3906 63.1875 51.2187 62.75 50.3125 62.6094C50.0937 62.5625 49.8906 62.5469 49.7031 62.5469L47.1406 62.2187H47.1094L43.9219 61.7969L40.7031 61.375L39.2031 61.1875L27.3906 59.6562C26.625 59.6562 25.8125 59.6094 24.9687 59.5C23.9375 59.4063 22.8594 59.25 21.7812 59.0312C20.7187 58.8437 19.6406 58.5938 18.6094 58.3281C17.5312 58.0781 16.4687 57.7812 15.4844 57.5C14.3437 57.1562 13.2812 56.8281 12.3906 56.5312C11.6562 56.2969 11.0312 56.0781 10.5469 55.9062C10.2656 55.2344 10.0312 54.5312 9.85937 53.8125C9.53125 52.5937 9.375 51.3125 9.375 50V47.3906C9.875 46.5625 10.4219 45.75 11.0312 44.9844C12.1406 43.5156 13.4062 42.1719 14.7812 40.9844C14.8281 40.9219 14.8906 40.875 14.9375 40.8437L14.9531 40.8281C15.4375 40.3906 15.9375 40 16.4687 39.625C16.5312 39.5625 16.5937 39.5156 16.6562 39.4687C16.9062 39.2812 17.1719 39.0937 17.4531 38.9219C19.6875 37.4062 22.1562 36.2187 24.7969 35.4219C27.2969 34.6719 29.9375 34.2812 32.6875 34.2812C38.1406 34.2812 43.2344 35.8906 47.4844 38.6406C50.625 40.6562 53.3281 43.3125 55.3906 46.4219C55.6406 46.7812 55.875 47.1406 56.1094 47.5156C57.1875 49.3437 58.0781 51.3125 58.7344 53.375C58.8125 53.6094 58.875 53.8437 58.9375 54.0937C59.0625 54.5156 59.1719 54.9531 59.2656 55.3906C59.2969 55.5 59.3281 55.6094 59.3594 55.7344C59.5781 56.7187 59.7344 57.75 59.8437 58.7812C59.8437 58.7969 59.8437 58.7969 59.8437 58.7969C59.9375 59.7188 59.9844 60.6562 59.9844 61.5937Z" fill="#FF5722"/>
<path d="M56.7656 61.5937C56.7656 62.1406 56.7344 62.7344 56.6719 63.3281C56.6406 63.6094 56.6094 63.8906 56.5781 64.1563C56.2187 64.3281 55.8594 64.4844 55.4844 64.625C54.7812 64.8906 54.0625 65.1094 53.3281 65.2656C52.8281 65.375 52.3125 65.4688 51.7969 65.5156H51.7812C51.2969 65.2188 50.7344 64.8594 50.1562 64.4531C49.1094 63.7188 48.0156 62.8906 47.1406 62.2187C47.125 62.2031 47.125 62.2031 47.1094 62.1875C46.1875 61.4844 45.5312 60.9531 45.5312 60.9531L43.875 61.0156L40.6875 61.125L39.2031 61.1875L33.2344 61.4062L28.1875 61.5937C27.8594 61.6094 27.4688 61.6094 26.9844 61.5937H26.9688C26.3125 61.5781 25.5312 61.5313 24.6719 61.4531C23.6719 61.375 22.5781 61.2813 21.4687 61.1719C20.3906 61.0469 19.2969 60.9219 18.25 60.7969C17.0938 60.6719 16 60.5312 15.0625 60.4062C14.3281 60.3125 13.6875 60.2344 13.1719 60.1719C12.7344 59.6719 12.3437 59.1563 11.9687 58.5938C11.4062 57.75 10.9219 56.8594 10.5469 55.9062C10.2656 55.2344 10.0312 54.5312 9.85938 53.8125C10.3125 52.4219 10.9062 51.1094 11.6094 49.8437C12.1719 48.8125 12.8281 47.8281 13.5469 46.8906C14.25 45.9688 15.0156 45.1094 15.8438 44.3281V44.3125C16.0781 44.0781 16.3125 43.8594 16.5469 43.6563C16.9844 43.25 17.4375 42.875 17.9063 42.5156H17.9219C17.9375 42.4844 17.9531 42.4844 17.9688 42.4688C18.3438 42.1719 18.7344 41.9062 19.125 41.6406C21.4375 40.0625 24.0469 38.8906 26.8594 38.2031C28.7188 37.75 30.6719 37.5 32.6875 37.5C36.6563 37.5 40.4062 38.4531 43.7031 40.1719H43.7188C46.5469 41.625 49.0469 43.625 51.0625 46.0312C52.1719 47.3125 53.125 48.7188 53.9063 50.2031C54.4531 51.2031 54.9219 52.25 55.3125 53.3125C55.3438 53.4062 55.375 53.4844 55.4062 53.5625C55.6719 54.3437 55.9063 55.1562 56.1094 55.9687C56.25 56.5469 56.3594 57.1406 56.4531 57.7344C56.4844 57.9219 56.5156 58.0937 56.5313 58.2812C56.6875 59.3594 56.7656 60.4687 56.7656 61.5937Z" fill="#FF6F00"/>
<path d="M53.5625 61.5937V61.75C53.5625 62.2813 53.5156 62.9531 53.4688 63.6719C53.4219 64.2031 53.375 64.75 53.3281 65.2656C52.8281 65.375 52.3125 65.4688 51.7969 65.5156H51.7813C51.1875 65.5938 50.6094 65.625 50 65.625H47.2656L46.6719 65.4531L43.5938 64.5156L40.4688 63.5781L33.2344 61.4063L30.1094 60.4688C30.1094 60.4688 28.8125 60.9844 26.9844 61.5937H26.9688C26.2656 61.8281 25.5 62.0781 24.6875 62.3281C23.6719 62.625 22.5938 62.9219 21.5313 63.1562C20.4375 63.4062 19.3594 63.5938 18.3906 63.6719C18.0938 63.7031 17.7969 63.7188 17.5313 63.7188C16.6563 63.2344 15.8125 62.6563 15.0469 62.0156C14.375 61.4531 13.75 60.8437 13.1719 60.1719C12.7344 59.6719 12.3438 59.1563 11.9688 58.5938C12.0781 57.8906 12.2031 57.2031 12.3906 56.5313C12.8594 54.6719 13.5937 52.8906 14.5625 51.2656C15.0938 50.3438 15.6875 49.4531 16.375 48.625C16.3906 48.5781 16.4375 48.5313 16.4844 48.5C16.4688 48.4844 16.4844 48.4844 16.4844 48.4844C16.6875 48.2188 16.9063 47.9688 17.125 47.7344C17.125 47.7188 17.125 47.7188 17.125 47.7188C17.7656 47.0313 18.4219 46.375 19.1406 45.7656C19.3906 45.5625 19.625 45.3594 19.8906 45.1563C19.9375 45.1094 19.9844 45.0781 20.0469 45.0313C23.5625 42.3438 27.9531 40.7188 32.6875 40.7188C38.0625 40.7188 42.9531 42.7344 46.6563 46.0469C48.4375 47.6563 49.9531 49.5781 51.0938 51.7187C51.1875 51.875 51.2813 52.0469 51.3594 52.2187C51.5 52.5 51.6406 52.7969 51.7656 53.1094C52.2813 54.2344 52.6875 55.4219 52.9688 56.6406C53 56.7656 53.0313 56.8906 53.0625 57.0156C53.1875 57.5938 53.2969 58.1875 53.375 58.7813C53.5 59.7031 53.5625 60.6406 53.5625 61.5937Z" fill="#FF9800"/>
<path d="M50.3438 61.5937C50.3438 61.9062 50.3281 62.25 50.3125 62.6094C50.2813 63.1875 50.2344 63.8125 50.1562 64.4531C50.125 64.8437 50.0625 65.2344 50 65.625H41.4375L39.7812 65.3594L33.3125 64.3281L32.3906 64.1875L30.2812 63.8437C29.3594 63.8437 27.3594 64.25 25.25 64.6406C24.1406 64.8437 23.0156 65.0625 22 65.2031C21.875 65.2187 21.75 65.2344 21.6406 65.25H21.625C20.5313 65.0156 19.4688 64.6563 18.4688 64.1875C18.1563 64.0469 17.8438 63.8906 17.5313 63.7187C16.6563 63.2344 15.8125 62.6562 15.0469 62.0156C15.0313 61.8281 15.0156 61.6719 15.0156 61.5937C15.0156 61.1875 15.0313 60.7969 15.0625 60.4062C15.125 59.4062 15.2656 58.4375 15.4844 57.5C15.8281 56.0781 16.3281 54.7031 17 53.4375C17.125 53.1719 17.2656 52.9062 17.4219 52.6562C17.4844 52.5312 17.5625 52.4219 17.625 52.2969C17.9063 51.8438 18.2187 51.4062 18.5312 50.9687C19.1875 50.1094 19.9219 49.2969 20.7031 48.5625C20.7188 48.5625 20.7188 48.5625 20.7188 48.5625C20.7813 48.5 20.8438 48.4375 20.9063 48.3906C20.9844 48.3281 21.0469 48.25 21.125 48.2031C21.4375 47.9219 21.75 47.6719 22.0781 47.4375C22.0781 47.4219 22.0938 47.4219 22.0938 47.4219C25.0469 45.2187 28.7031 43.9219 32.6875 43.9219C35.7813 43.9219 38.6563 44.7031 41.1719 46.0781H41.1875C43.3437 47.2656 45.2187 48.875 46.7031 50.8125C47.2812 51.5625 47.7969 52.3594 48.2344 53.2031H48.25C48.3281 53.3594 48.4063 53.5156 48.4844 53.6719C48.9531 54.5937 49.3281 55.5625 49.6094 56.5625H49.625C49.6406 56.6406 49.6719 56.7187 49.6875 56.7969C49.875 57.4687 50.0312 58.1562 50.1406 58.8594C50.1562 59 50.1719 59.1562 50.1875 59.2969C50.2969 60.0469 50.3438 60.8125 50.3438 61.5937Z" fill="#FFC107"/>
<path d="M47.1406 61.4219C47.1406 61.6719 47.1406 61.9375 47.1094 62.1875V62.2031C47.1094 62.2188 47.1094 62.2187 47.1094 62.2187C47.0781 63.3437 46.9219 64.4531 46.6719 65.4531C46.6719 65.5156 46.6563 65.5625 46.625 65.625H39.3281L33.3125 64.3281L32.5156 64.1563L32.3906 64.1875L25.7187 65.5625L25.4219 65.625H25C24 65.625 23.0156 65.5312 22.0625 65.3437C21.9219 65.3125 21.7813 65.2812 21.6406 65.25H21.625C20.5313 65.0156 19.4687 64.6563 18.4687 64.1875C18.4375 64.0156 18.4063 63.8437 18.3906 63.6719C18.2813 63 18.2344 62.2969 18.2344 61.5937C18.2344 61.3281 18.2344 61.0625 18.25 60.7969C18.2969 59.9531 18.4219 59.125 18.6094 58.3281C18.7344 57.7344 18.9062 57.1562 19.1094 56.6094C19.2812 56.125 19.4844 55.6563 19.7031 55.2031C19.8906 54.8125 20.1094 54.4375 20.3281 54.0625C20.5469 53.7031 20.7812 53.3594 21.0312 53.0156C21.6562 52.1563 22.3906 51.3594 23.2031 50.6562C23.6719 50.25 24.1875 49.8594 24.7187 49.5156C27 48.0156 29.7344 47.1406 32.6875 47.1406C33.2656 47.1406 33.8281 47.1719 34.375 47.25H34.4063C36.0781 47.4375 37.6406 47.9063 39.0781 48.6094C39.0938 48.6094 39.0938 48.6094 39.0938 48.6094C41.3594 49.7188 43.2813 51.3906 44.6875 53.4531C44.9219 53.7969 45.1563 54.1719 45.3594 54.5469C45.5313 54.8437 45.6875 55.1562 45.8281 55.4687C46.0469 55.9531 46.25 56.4688 46.4219 56.9844H46.4375C46.6094 57.5625 46.7656 58.1406 46.875 58.75V58.7656C47.0469 59.625 47.1406 60.5156 47.1406 61.4219Z" fill="#FFD54F"/>
<path d="M43.9219 61.75V61.7969C43.9219 62.7187 43.8125 63.625 43.5937 64.5156C43.5156 64.8906 43.4063 65.2656 43.2656 65.625H36.2656L32.6875 64.6406L29.1094 65.625H25C24 65.625 23.0156 65.5312 22.0625 65.3438C22.0312 65.2969 22.0156 65.25 22 65.2031C21.7812 64.5312 21.6094 63.8594 21.5312 63.1562C21.4687 62.7031 21.4375 62.2344 21.4375 61.75C21.4375 61.5625 21.4375 61.3594 21.4687 61.1719C21.4844 60.4375 21.5937 59.7187 21.7812 59.0312C21.875 58.5625 22.0156 58.1094 22.2031 57.6719C22.2656 57.4531 22.3594 57.25 22.4687 57.0469C22.7031 56.5156 22.9844 56 23.2969 55.5C23.6406 55 24.0156 54.5312 24.4375 54.0937C24.9375 53.5312 25.5 53.0156 26.1406 52.5938C27.2344 51.7969 28.4844 51.2031 29.8438 50.875C30.75 50.625 31.7031 50.5 32.6875 50.5C35.8125 50.5 38.6094 51.75 40.6406 53.7656C40.7187 53.8438 40.8125 53.9375 40.8906 54.0469H40.9063C41.125 54.2813 41.3281 54.5156 41.5312 54.7813C42.1094 55.5156 42.5937 56.3125 42.9687 57.1875C43.1562 57.5937 43.3125 58.0156 43.4375 58.4531C43.4531 58.5156 43.4687 58.5625 43.4844 58.625C43.7031 59.3906 43.8437 60.1875 43.875 61.0156C43.9062 61.25 43.9219 61.5 43.9219 61.75Z" fill="#FFE082"/>
<path d="M40.7187 61.75C40.7187 62.3906 40.6406 63 40.4687 63.5781C40.3125 64.2031 40.0781 64.7969 39.7812 65.3594C39.7344 65.4531 39.625 65.625 39.625 65.625H25.75C25.7344 65.6094 25.7187 65.5781 25.7187 65.5625C25.5312 65.2656 25.375 64.9687 25.25 64.6406C24.9375 63.9219 24.75 63.1406 24.6875 62.3281C24.6563 62.1406 24.6562 61.9375 24.6562 61.75C24.6562 61.6562 24.6563 61.5469 24.6719 61.4531C24.6875 60.7656 24.7812 60.1094 24.9687 59.5C25.125 58.9375 25.3281 58.4219 25.5937 57.9219C25.5937 57.9219 25.6094 57.9062 25.6094 57.8906C25.7969 57.5625 26 57.2344 26.2344 56.9219C27 55.8906 28.0156 55.0469 29.1875 54.5C29.2031 54.5 29.2031 54.5 29.2031 54.5C29.5781 54.3125 29.9688 54.1562 30.375 54.0469C30.375 54.0469 30.375 54.0469 30.3906 54.0469C31.1094 53.8281 31.8906 53.7188 32.6875 53.7188C33.6094 53.7188 34.5 53.8594 35.3125 54.1562C35.6094 54.2344 35.8906 54.3594 36.1719 54.5C36.1719 54.5 36.1719 54.5 36.1875 54.5C37.5313 55.1406 38.6719 56.1406 39.4531 57.3906C39.6094 57.625 39.75 57.875 39.875 58.1406C39.9375 58.25 40 58.375 40.0469 58.4844C40.4062 59.2969 40.625 60.1875 40.6875 61.125C40.7031 61.2031 40.7031 61.2812 40.7031 61.375C40.7187 61.5 40.7187 61.625 40.7187 61.75Z" fill="#FFECB3"/>
<path d="M46.875 17.1875H28.125C22.0312 17.1875 17.1875 22.0312 17.1875 28.125V46.875C17.1875 52.9688 22.0312 57.8125 28.125 57.8125H46.875C52.9688 57.8125 57.8125 52.9688 57.8125 46.875V28.125C57.8125 22.0312 52.9688 17.1875 46.875 17.1875Z" stroke="white" stroke-width="2" stroke-miterlimit="10" stroke-linecap="round" stroke-linejoin="round"/>
<path d="M48.4375 26.5625C49.3004 26.5625 50 25.8629 50 25C50 24.1371 49.3004 23.4375 48.4375 23.4375C47.5746 23.4375 46.875 24.1371 46.875 25C46.875 25.8629 47.5746 26.5625 48.4375 26.5625Z" fill="white"/>
<path d="M37.5 46.875C42.6777 46.875 46.875 42.6777 46.875 37.5C46.875 32.3223 42.6777 28.125 37.5 28.125C32.3223 28.125 28.125 32.3223 28.125 37.5C28.125 42.6777 32.3223 46.875 37.5 46.875Z" stroke="white" stroke-width="2" stroke-miterlimit="10" stroke-linecap="round" stroke-linejoin="round"/>
</svg>
